<?xml version="1.0" encoding="utf-8"?>
<!-- Generator: Adobe Illustrator 16.0.0, SVG Export Plug-In . SVG Version: 6.00 Build 0)  -->
<!DOCTYPE svg PUBLIC "-//W3C//DTD SVG 1.1//EN" "http://www.w3.org/Graphics/SVG/1.1/DTD/svg11.dtd">
<svg version="1.1" id="Layer_1" xmlns="http://www.w3.org/2000/svg" xmlns:xlink="http://www.w3.org/1999/xlink" x="0px" y="0px"
	 width="16px" height="16px" viewBox="-1.5 -1.5 16 16" enable-background="new -1.5 -1.5 16 16" xml:space="preserve">
<g>
	<path id="path-1" fill="#FFFFFF" d="M13,4.805c0,0.115-0.068,0.24-0.203,0.375L9.961,7.945l0.672,3.906
		c0.006,0.037,0.008,0.088,0.008,0.156c0,0.109-0.027,0.201-0.082,0.277s-0.135,0.113-0.238,0.113c-0.1,0-0.203-0.031-0.313-0.094
		L6.5,10.461l-3.508,1.844c-0.115,0.063-0.219,0.094-0.313,0.094c-0.109,0-0.191-0.037-0.246-0.113s-0.082-0.168-0.082-0.277
		c0-0.031,0.005-0.084,0.016-0.156l0.672-3.906L0.195,5.18C0.065,5.039,0,4.914,0,4.805c0-0.193,0.146-0.313,0.438-0.359l3.922-0.57
		L6.117,0.32C6.216,0.107,6.344,0,6.5,0s0.284,0.107,0.383,0.32l1.758,3.555l3.922,0.57C12.854,4.492,13,4.612,13,4.805z"/>
</g>
<title>icon/ic_rating_one_13</title>
<desc>Created with Sketch.</desc>
<g id="icon_x2F_ic_x5F_rating_x5F_one_x5F_13">
	<g id="shape">
		<g id="Mask">
			<path id="path-1_1_" fill="#FF5862" d="M13,4.805c0,0.115-0.068,0.24-0.203,0.375L9.961,7.945l0.672,3.906
				c0.006,0.037,0.008,0.088,0.008,0.156c0,0.109-0.027,0.201-0.082,0.277s-0.135,0.113-0.238,0.113c-0.1,0-0.203-0.031-0.313-0.094
				L6.5,10.461l-3.508,1.844c-0.115,0.063-0.219,0.094-0.313,0.094c-0.109,0-0.191-0.037-0.246-0.113s-0.082-0.168-0.082-0.277
				c0-0.031,0.005-0.084,0.016-0.156l0.672-3.906L0.195,5.18C0.065,5.039,0,4.914,0,4.805c0-0.193,0.146-0.313,0.438-0.359
				l3.922-0.57L6.117,0.32C6.216,0.107,6.344,0,6.5,0s0.284,0.107,0.383,0.32l1.758,3.555l3.922,0.57
				C12.854,4.492,13,4.612,13,4.805z"/>
		</g>
	</g>
</g>
</svg>
