<?xml version="1.0" encoding="utf-8"?>
<!-- Generator: Adobe Illustrator 22.0.1, SVG Export Plug-In . SVG Version: 6.00 Build 0)  -->
<svg version="1.1" id="Layer_1" xmlns="http://www.w3.org/2000/svg" xmlns:xlink="http://www.w3.org/1999/xlink" x="0px" y="0px"
	 viewBox="0 0 16 16" style="enable-background:new 0 0 16 16;" xml:space="preserve">
<style type="text/css">
	.st0{filter:url(#Adobe_OpacityMaskFilter);}
	.st1{fill:#FFFFFF;}
	.st2{mask:url(#mask-2_1_);fill:#EAEDF3;}
</style>
<title>icon/ic_rating_empty_13</title>
<desc>Created with Sketch.</desc>
<g id="icon_x2F_ic_x5F_rating_x5F_empty_x5F_13">
	<g id="shape">
		<defs>
			<filter id="Adobe_OpacityMaskFilter" filterUnits="userSpaceOnUse" x="1.5" y="-2.2" width="14.6" height="16.7">
				<feColorMatrix  type="matrix" values="1 0 0 0 0  0 1 0 0 0  0 0 1 0 0  0 0 0 1 0"/>
			</filter>
		</defs>
		<mask maskUnits="userSpaceOnUse" x="1.5" y="-2.2" width="14.6" height="16.7" id="mask-2_1_">
			<g class="st0">
				<path id="path-1_2_" class="st1" d="M14.5,6.3c0,0.1-0.1,0.2-0.2,0.4l-2.8,2.8l0.7,3.9c0,0,0,0.1,0,0.2c0,0.1,0,0.2-0.1,0.3
					s-0.1,0.1-0.2,0.1c-0.1,0-0.2,0-0.3-0.1L8,12l-3.5,1.8c-0.1,0.1-0.2,0.1-0.3,0.1c-0.1,0-0.2,0-0.2-0.1s-0.1-0.2-0.1-0.3
					c0,0,0-0.1,0-0.2l0.7-3.9L1.7,6.7C1.6,6.5,1.5,6.4,1.5,6.3c0-0.2,0.1-0.3,0.4-0.4l3.9-0.6l1.8-3.6C7.7,1.6,7.8,1.5,8,1.5
					s0.3,0.1,0.4,0.3l1.8,3.6l3.9,0.6C14.4,6,14.5,6.1,14.5,6.3z"/>
			</g>
		</mask>
		<rect id="Rectangle" x="1.5" y="-2.2" class="st2" width="14.6" height="16.7"/>
	</g>
</g>
</svg>
