<?xml version="1.0" encoding="utf-8"?>
<!-- Generator: Adobe Illustrator 23.0.1, SVG Export Plug-In . SVG Version: 6.00 Build 0)  -->
<svg version="1.1" id="Layer_1" xmlns="http://www.w3.org/2000/svg" xmlns:xlink="http://www.w3.org/1999/xlink" x="0px" y="0px"
	 viewBox="0 0 75 75" style="enable-background:new 0 0 75 75;" xml:space="preserve">
<style type="text/css">
	.st0{fill:#55362E;}
	.st1{fill:#FFDECA;}
	.st2{opacity:0.2;fill:#FF8473;enable-background:new    ;}
	.st3{fill-rule:evenodd;clip-rule:evenodd;fill:#FF8E8E;}
	.st4{fill:none;stroke:#687079;stroke-width:2;stroke-linecap:round;stroke-linejoin:round;}
	.st5{fill:#FFA6A6;}
</style>
<title>Artboard</title>
<desc>Created with Sketch.</desc>
<g id="Clip-2">
</g>
<g id="Clip-5">
</g>
<path class="st0" d="M37.5,0C16.8,0,0,16.8,0,37.5C0,47,3.6,55.7,9.4,62.4h0.2c-0.6-2.5-0.9-5.4-0.9-8.6C8.7,35.1,18.9,30,37.5,30
	c18.6,0,28.7,5.1,28.7,23.7c0,3.2-0.3,6.1-0.9,8.6h0.2C71.4,55.7,75,47,75,37.5C75,16.8,58.2,0,37.5,0z"/>
<path class="st1" d="M37.5,30C18.9,30,8.7,35.1,8.7,53.8c0,3.2,0.3,6.1,0.9,8.6h5.9c-1-1.4-1.6-3.1-1.6-5c0-4.8,3.9-8.7,8.8-8.7
	c4.8,0,8.7,3.9,8.7,8.7c0,1.9-0.6,3.6-1.6,5h15c-1-1.4-1.6-3.1-1.6-5c0-4.8,3.9-8.7,8.7-8.7c4.8,0,8.7,3.9,8.7,8.7
	c0,1.9-0.6,3.6-1.6,5h6.1c0.6-2.5,0.9-5.4,0.9-8.6C66.2,35.1,56.1,30,37.5,30z"/>
<path class="st1" d="M22.8,48.6c-4.8,0-8.8,3.9-8.8,8.7c0,1.9,0.6,3.6,1.6,5h14.3c1-1.4,1.6-3.1,1.6-5
	C31.5,52.5,27.6,48.6,22.8,48.6z"/>
<path class="st2" d="M22.8,48.6c-4.8,0-8.8,3.9-8.8,8.7c0,1.9,0.6,3.6,1.6,5h14.3c1-1.4,1.6-3.1,1.6-5
	C31.5,52.5,27.6,48.6,22.8,48.6z"/>
<path class="st1" d="M52.1,48.6c-4.8,0-8.7,3.9-8.7,8.7c0,1.9,0.6,3.6,1.6,5h14.3c1-1.4,1.6-3.1,1.6-5
	C60.8,52.5,56.9,48.6,52.1,48.6z"/>
<path class="st2" d="M52.1,48.6c-4.8,0-8.7,3.9-8.7,8.7c0,1.9,0.6,3.6,1.6,5h14.3c1-1.4,1.6-3.1,1.6-5
	C60.8,52.5,56.9,48.6,52.1,48.6z"/>
<path id="Fill-11" class="st3" d="M37.5,59.4c-2,0-3.7-1.7-3.7-3.7v-1.5c0-2,1.7,0.4,3.7,0.4c2,0,3.7-2.5,3.7-0.4v1.5
	C41.2,57.7,39.5,59.4,37.5,59.4"/>
<polyline id="Stroke-13" class="st4" points="27.6,47.3 31.5,49.7 27.6,51.3 "/>
<polyline id="Stroke-15" class="st4" points="46.6,47.3 42.7,49.7 46.6,51.3 "/>
<path id="Rectangle" class="st1" d="M6.9,56.7h6c2.8,0,5,2.2,5,5v1.4c0,2.8-2.2,5-5,5h-6c-2.8,0-5-2.2-5-5v-1.4
	C1.9,58.9,4.2,56.7,6.9,56.7z"/>
<path class="st1" d="M64,56.7h6c2.8,0,5,2.2,5,5v1.4c0,2.8-2.2,5-5,5h-6c-2.8,0-5-2.2-5-5v-1.4C59,58.9,61.2,56.7,64,56.7z"/>
<polygon id="Path-2" class="st5" points="-108.5,62.4 -108.5,80.5 -127.8,80.6 "/>
</svg>
